<svg id="Component_25_2" data-name="Component 25 – 2" xmlns="http://www.w3.org/2000/svg" width="15.378" height="15.377" viewBox="0 0 15.378 15.377">
  <path id="path" d="M1152.939,400.627a7.682,7.682,0,1,1,4.275-1.3A7.654,7.654,0,0,1,1152.939,400.627Zm0-14.3a6.616,6.616,0,1,0,1.291.127A6.595,6.595,0,0,0,1152.938,386.323Z" transform="translate(-1145.25 -385.25)" fill="#1e2327"/>
  <path id="path-2" data-name="path" d="M1155.786,399.829a.536.536,0,0,1-.536-.536v-5.007a.536.536,0,0,1,1.073,0v5.007A.536.536,0,0,1,1155.786,399.829Z" transform="translate(-1148.098 -387.67)" fill="#1e2327"/>
  <path id="path-3" data-name="path" d="M1155.786,392.038a.536.536,0,0,1-.536-.536v-.715a.536.536,0,1,1,1.073,0v.715A.536.536,0,0,1,1155.786,392.038Z" transform="translate(-1148.098 -386.674)" fill="#1e2327"/>
</svg>
