<svg width="145" height="51" viewBox="0 0 145 51" fill="none" xmlns="http://www.w3.org/2000/svg">
<path d="M45.3979 29.7653L48.7063 26.9951L52.1811 24.0653L49.567 17.8571L43.3821 13.9414L41.2782 9.64243L43.1276 7.34994L47.9228 4.64365V3.83203H8.09918C4.48975 3.83203 1.5625 6.75386 1.5625 10.3596V23.4134C1.5625 27.0178 4.48842 29.9409 8.09918 29.9409H45.3979V29.7653Z" fill="#FFBE00"/>
<path d="M32.006 26.2548C31.0053 25.7306 29.9248 25.3381 28.7883 25.0986C27.9475 24.9216 27.0761 24.8285 26.1834 24.8285C25.4839 24.8285 24.7964 24.8857 24.1276 24.9961C23.3348 25.1265 22.5687 25.3301 21.8332 25.6015C21.664 25.6641 21.4961 25.7306 21.3296 25.7998C20.4395 26.1737 19.5109 26.4624 18.5529 26.5875C18.0919 26.6487 17.6229 26.6793 17.1445 26.6793C16.461 26.6793 15.7895 26.6141 15.142 26.4917C14.701 26.4092 14.2693 26.2987 13.8509 26.163C13.7137 26.1191 13.5778 26.0725 13.4432 26.022C13.2074 25.9355 12.9742 25.8397 12.745 25.7372C12.5878 25.6521 12.4332 25.5643 12.2827 25.4698C12.0322 25.3181 11.7897 25.1558 11.5539 24.9828C10.9343 24.5331 10.3654 24.0169 9.85774 23.4448C9.14091 22.6411 8.54534 21.7297 8.09766 20.7371C9.74049 21.6273 11.6245 22.1329 13.6257 22.1329C14.0428 22.1329 14.4545 22.1102 14.8608 22.0677C15.0127 22.0517 15.1646 22.0331 15.3152 22.0118C15.6296 21.9665 15.9414 21.908 16.2479 21.8375L16.2865 21.8282L16.3051 21.8242C16.4091 21.8002 16.5143 21.7736 16.6169 21.7457H16.6249L18.1971 21.3478L20.7553 20.7039C20.7553 20.7039 20.7566 20.7039 20.7593 20.7025H20.7633L20.7713 20.6999L20.9818 20.648C21.8225 20.4418 22.7006 20.334 23.6039 20.334C24.009 20.334 24.4087 20.3566 24.8018 20.3992C25.4386 20.5096 26.0569 20.6773 26.6498 20.8968C26.7697 20.9407 26.8883 20.9859 27.0055 21.0352C27.1268 21.0964 27.2454 21.1616 27.3639 21.2294C27.3786 21.2374 27.3919 21.2441 27.4066 21.252C29.4171 22.395 31.0333 24.1459 32.0033 26.2575L32.006 26.2548Z" fill="#333333"/>
<path d="M29.5104 21.9235C28.7749 21.3075 27.9501 20.7859 27.0508 20.3814C26.3859 20.082 25.6798 19.8479 24.939 19.6855C24.358 19.5591 23.7785 19.482 23.2029 19.4527C22.522 19.4168 21.8478 19.4474 21.1896 19.5392C21.0111 19.5645 20.8325 19.5937 20.6553 19.6283C20.3675 19.6829 20.0811 19.7428 19.7893 19.7667C18.9113 19.8386 18.0092 19.784 17.1045 19.5858C16.5369 19.462 15.992 19.2864 15.4777 19.0669C15.1259 18.9192 14.7889 18.7489 14.4664 18.5599C14.3598 18.4987 14.2559 18.4349 14.1533 18.3697C13.9734 18.2552 13.7976 18.1342 13.6257 18.0064C13.5111 17.908 13.3992 17.8068 13.2899 17.7004C13.11 17.5301 12.9382 17.3505 12.773 17.1642C12.3413 16.6786 11.9629 16.1477 11.6444 15.5809C11.1954 14.7852 10.8676 13.9204 10.6758 13.0156C11.8776 14.0521 13.3485 14.8118 15.01 15.1751C15.3564 15.2509 15.7015 15.3068 16.0453 15.3454C16.1745 15.36 16.3038 15.372 16.433 15.3813C16.7022 15.4013 16.9713 15.4079 17.2378 15.4052H17.2711H17.2871C17.3777 15.4052 17.4696 15.4013 17.5602 15.3973H17.5669L18.9432 15.3534L21.183 15.2815C21.183 15.2815 21.1843 15.2815 21.187 15.2815H21.1896H21.1963L21.3802 15.2762C22.1143 15.2576 22.8631 15.3267 23.6132 15.4904C23.949 15.5636 24.2768 15.6541 24.5952 15.7605C25.1042 15.9681 25.5852 16.2182 26.0382 16.5083C26.1301 16.5655 26.2207 16.6253 26.3086 16.6879C26.3979 16.7611 26.4845 16.8356 26.5711 16.9127C26.5818 16.922 26.5924 16.93 26.6018 16.9393C28.0621 18.2512 29.0853 19.9969 29.5077 21.9248L29.5104 21.9235Z" fill="#333333"/>
<path d="M27.9739 17.5656C27.4582 16.9336 26.8533 16.3641 26.1658 15.8825C25.6582 15.5259 25.1052 15.2159 24.5123 14.9618C24.0473 14.7622 23.5743 14.6052 23.0987 14.4881C22.5351 14.3497 21.9675 14.2659 21.4012 14.2366C21.248 14.2286 21.0948 14.2247 20.9402 14.2247C20.6911 14.2247 20.4419 14.2273 20.1941 14.2007C19.4493 14.1195 18.7031 13.9293 17.9783 13.6193C17.524 13.425 17.0963 13.1908 16.7019 12.9247C16.4328 12.7451 16.1769 12.5482 15.9371 12.338C15.8585 12.2701 15.7812 12.1996 15.7066 12.1277C15.5747 12.0027 15.4468 11.8736 15.3242 11.7392C15.2443 11.6381 15.167 11.5357 15.0937 11.4306C14.9711 11.2589 14.8552 11.082 14.7486 10.8997C14.4648 10.4247 14.2343 9.91908 14.0611 9.39485C13.8146 8.65774 13.6787 7.88204 13.6641 7.0957C14.5021 8.1548 15.6093 9.02629 16.9391 9.59576C17.2162 9.71418 17.496 9.81663 17.7771 9.90444C17.8824 9.9377 17.989 9.96831 18.0956 9.99625C18.3181 10.0561 18.5406 10.1054 18.7644 10.1453L18.7924 10.1506L18.8057 10.1532C18.8817 10.1666 18.959 10.1785 19.0349 10.1905H19.0416L20.1994 10.3768L22.0834 10.6761C22.0834 10.6761 22.0847 10.6761 22.0861 10.6761H22.0887L22.0954 10.6775L22.2499 10.7028C22.8668 10.8052 23.4811 10.9835 24.082 11.2403C24.3511 11.3547 24.6096 11.4838 24.8588 11.6235C25.2505 11.8776 25.6129 12.165 25.9446 12.4803C26.0126 12.5429 26.0779 12.6081 26.1418 12.6733C26.2045 12.7491 26.2658 12.8249 26.3244 12.9034C26.3324 12.9128 26.339 12.9207 26.3457 12.9314C27.3556 14.2619 27.9299 15.8865 27.9712 17.5643L27.9739 17.5656Z" fill="#333333"/>
<path d="M39.5683 24.5056C41.0619 25.3652 43.3349 26.1182 45.6959 26.1182C48.6512 26.1182 50.3046 24.7318 50.3046 22.6615C50.3046 20.7496 49.0202 19.6239 45.8118 18.4611C41.6228 16.9775 38.9474 14.7329 38.9474 11.1059C38.9474 6.95868 42.4196 3.83594 47.921 3.83594C50.6697 3.83594 52.679 4.42004 53.9993 5.08663L52.8908 8.81742C51.9741 8.33843 50.2074 7.61596 47.8251 7.61596C44.8845 7.61596 43.6374 9.178 43.6374 10.6669C43.6374 12.6094 45.1043 13.5222 48.4873 14.8114C52.8921 16.4906 55.0093 18.6979 55.0093 22.3369C55.0093 26.4096 51.9368 29.9435 45.3948 29.9435C42.7114 29.9435 39.9267 29.1811 38.541 28.3349L39.5656 24.5056H39.5683Z" fill="#333333"/>
<path d="M96.9843 24.5037C98.4779 25.3632 100.751 26.1163 103.112 26.1163C106.067 26.1163 107.721 24.7299 107.721 22.6596C107.721 20.7476 106.436 19.622 103.228 18.4591C99.0388 16.9756 96.3634 14.731 96.3634 11.104C96.3634 6.95673 99.8356 3.83398 105.337 3.83398C108.086 3.83398 110.095 4.41809 111.415 5.08468L110.307 8.81547C109.39 8.33648 107.623 7.61401 105.241 7.61401C102.301 7.61401 101.053 9.17604 101.053 10.6649C101.053 12.6075 102.52 13.5202 105.903 14.8095C110.308 16.4886 112.425 18.6959 112.425 22.3349C112.425 26.4077 109.353 29.9415 102.811 29.9415C100.127 29.9415 97.3427 29.1792 95.957 28.3329L96.9816 24.5037H96.9843Z" fill="#333333"/>
<path d="M84.2614 19.2894C84.1028 15.9178 83.9309 11.8637 83.9483 8.30721H83.8417C82.9783 11.5085 81.8857 15.0304 80.7572 18.334L76.9186 29.6315H73.2452L69.7797 18.4884C68.7551 15.1381 67.8211 11.5909 67.1349 8.30721H67.0483C66.9364 11.724 66.7791 15.8965 66.5793 19.449L65.9984 29.9415H61.5469L63.2856 3.83398H69.5612L72.9667 14.3199C73.9061 17.404 74.7441 20.5028 75.3704 23.4127H75.485C76.1871 20.56 77.0851 17.3721 78.0978 14.2999L81.7245 3.83531H87.9201L89.4217 29.9429H84.7677L84.2614 19.292V19.2894Z" fill="#333333"/>
<path d="M132.448 9.03551C132.45 10.0441 131.739 10.877 130.56 10.877C129.486 10.877 128.765 10.0441 128.768 9.03551C128.765 8.01766 129.526 7.19141 130.613 7.19141C131.7 7.19141 132.44 8.00037 132.448 9.03551ZM129.131 29.9394V13.6418H132.084V29.9394H129.131Z" fill="#333333"/>
<path d="M135.849 18.7206C135.849 16.7967 135.801 15.1561 135.715 13.6447H138.316L138.429 16.8419H138.534C139.296 14.6559 141.096 13.2734 143.079 13.2734C143.401 13.2734 143.633 13.2934 143.905 13.3573V16.1447C143.601 16.0808 143.303 16.0582 142.895 16.0582C140.803 16.0582 139.326 17.6322 138.922 19.8502C138.845 20.2667 138.802 20.7523 138.802 21.234V29.9409H135.849V18.7193V18.7206Z" fill="#333333"/>
<path d="M120.596 29.9402C121.499 29.9402 122.23 29.2099 122.23 28.309C122.23 27.4081 121.499 26.6777 120.596 26.6777C119.694 26.6777 118.963 27.4081 118.963 28.309C118.963 29.2099 119.694 29.9402 120.596 29.9402Z" fill="#333333"/>
<path d="M2.62308 38.1562V46.315H1.5625V38.1562H2.62308Z" fill="#333333"/>
<path d="M6.54688 38.2739C7.18775 38.1688 7.94721 38.0996 8.77062 38.0996C10.2682 38.0996 11.3408 38.4535 12.0483 39.1148C12.7718 39.7694 13.1941 40.7048 13.1941 42.006C13.1941 43.3073 12.7798 44.4036 12.031 45.1501C11.2662 45.9018 10.0151 46.3143 8.44819 46.3143C7.69939 46.3143 7.0785 46.285 6.54688 46.2251V38.2739ZM7.59679 45.4215C7.86194 45.4641 8.24833 45.4707 8.64805 45.4707C10.8878 45.476 12.0949 44.2307 12.0949 42.0459C12.1069 40.1366 11.0264 38.9325 8.82259 38.9325C8.28164 38.9325 7.87659 38.9831 7.59813 39.039V45.4215H7.59679Z" fill="#333333"/>
<path d="M20.8683 42.4898H17.7012V45.4369H21.244V46.315H16.6406V38.1562H21.0575V39.0344H17.7012V41.6183H20.8683V42.4911V42.4898Z" fill="#333333"/>
<path d="M25.7188 38.1562V41.573H29.668V38.1562H30.7285V46.315H29.668V42.4871H25.7188V46.315H24.6582V38.1562H25.7188Z" fill="#333333"/>
<path d="M34.6289 38.3172C35.1339 38.2268 35.7961 38.1562 36.6435 38.1562C37.6721 38.1562 38.4315 38.3931 38.9165 38.8295C39.3562 39.2167 39.6293 39.8034 39.6293 40.5246C39.6293 41.2457 39.4108 41.8378 38.9991 42.2569C38.4409 42.849 37.5442 43.1431 36.5222 43.1431C36.2051 43.1431 35.9173 43.1311 35.6748 43.0672V46.315H34.6289V38.3172ZM35.6748 42.2157C35.908 42.2835 36.1998 42.3062 36.5435 42.3062C37.8133 42.3062 38.5808 41.6835 38.5808 40.5778C38.5808 39.4721 37.8146 38.9825 36.6661 38.9825C36.2051 38.9825 35.86 39.0251 35.6762 39.065V42.2157H35.6748Z" fill="#333333"/>
<path d="M43.4269 43.7511L42.5822 46.315H41.4883L44.2676 38.1562H45.5361L48.3261 46.315H47.1975L46.3222 43.7511H43.4256H43.4269ZM46.1103 42.9275L45.3016 40.5791C45.1244 40.0456 45.0018 39.5586 44.8805 39.0903H44.8526C44.7353 39.5666 44.6074 40.0656 44.4475 40.5645L43.6427 42.9262H46.1117L46.1103 42.9275Z" fill="#333333"/>
<path d="M51.5912 38.3305C52.1228 38.2241 52.8849 38.1562 53.6044 38.1562C54.7156 38.1562 55.4484 38.3678 55.9534 38.8228C56.3545 39.1768 56.589 39.7289 56.589 40.3623C56.589 41.4254 55.9094 42.1332 55.0607 42.4246V42.4538C55.6789 42.6707 56.052 43.2535 56.2492 44.0931C56.5157 45.224 56.7075 45.9984 56.8728 46.315H55.7869C55.6589 46.0809 55.4764 45.3903 55.2539 44.3765C55.0127 43.2681 54.5744 42.8384 53.6271 42.8064H52.6358V46.315H51.5898V38.3305H51.5912ZM52.6371 42.0161H53.707C54.8275 42.0161 55.5377 41.4067 55.5377 40.4793C55.5377 39.4282 54.7782 38.9705 53.6737 38.9692C53.1661 38.9692 52.8143 39.0158 52.6371 39.061V42.0161Z" fill="#333333"/>
<path d="M60.1953 38.3292C60.8322 38.2254 61.5863 38.1562 62.4044 38.1562C63.8913 38.1562 64.9573 38.5088 65.6608 39.1648C66.3789 39.8141 66.7986 40.7441 66.7986 42.0361C66.7986 43.328 66.3869 44.4164 65.6421 45.1588C64.8826 45.9052 63.6395 46.315 62.0833 46.315C61.3398 46.315 60.7229 46.2858 60.1953 46.2259V38.3292ZM61.2372 45.4289C61.501 45.4715 61.8848 45.4781 62.2805 45.4781C64.5056 45.4835 65.7034 44.2461 65.7034 42.076C65.7154 40.18 64.6428 38.9838 62.4537 38.9838C61.9168 38.9838 61.5144 39.0344 61.2372 39.0903V45.4302V45.4289Z" fill="#333333"/>
<path d="M71.4191 43.7511L70.5744 46.315H69.4805L72.2598 38.1562H73.5283L76.3183 46.315H75.1897L74.3144 43.7511H71.4178H71.4191ZM74.1025 42.9275L73.2938 40.5791C73.1165 40.0456 72.994 39.5586 72.8727 39.0903H72.8447C72.7275 39.5666 72.5996 40.0656 72.4397 40.5645L71.6349 42.9262H74.1038L74.1025 42.9275Z" fill="#333333"/>
<path d="M79.0326 45.699L83.5627 39.0756V39.0384H79.4163V38.1562H84.9324V38.8016L80.4276 45.3943V45.4329H84.9923V46.315H79.0312V45.699H79.0326Z" fill="#333333"/>
<path d="M89.6671 43.7511L88.8224 46.315H87.7285L90.5079 38.1562H91.7763L94.5663 46.315H93.4378L92.5624 43.7511H89.6658H89.6671ZM92.3505 42.9275L91.5418 40.5791C91.3646 40.0456 91.242 39.5586 91.1208 39.0903H91.0928C90.9755 39.5666 90.8476 40.0656 90.6877 40.5645L89.883 42.9262H92.3519L92.3505 42.9275Z" fill="#333333"/>
<path d="M97.8047 46.315V38.1562H98.9652L101.582 42.2795C102.179 43.2362 102.653 44.0944 103.04 44.9366L103.066 44.9233C102.97 43.8349 102.952 42.8397 102.952 41.5757V38.1562H103.946V46.315H102.874L100.278 42.1798C99.7153 41.2657 99.1651 40.3343 98.7573 39.4482L98.7214 39.4602C98.784 40.494 98.7986 41.4772 98.7986 42.8264V46.315H97.8047Z" fill="#333333"/>
<path d="M114.843 46.1299C114.66 46.223 114.28 46.3175 113.799 46.3175C112.685 46.3175 111.85 45.6136 111.85 44.3177C111.85 43.0218 112.686 42.2461 113.913 42.2461C114.402 42.2461 114.717 42.3499 114.851 42.4204L114.726 42.8355C114.534 42.745 114.26 42.6732 113.931 42.6732C113.002 42.6732 112.389 43.2653 112.389 44.3018C112.389 45.2677 112.946 45.8851 113.904 45.8851C114.219 45.8851 114.534 45.8225 114.741 45.7228L114.843 46.1299Z" fill="#333333"/>
<path d="M119.881 44.2406C119.881 45.5924 119.057 46.3148 118.051 46.3148C117.045 46.3148 116.277 45.5059 116.277 44.3151C116.277 43.1242 117.051 42.2461 118.104 42.2461C119.157 42.2461 119.881 43.0697 119.881 44.2406ZM116.816 44.3031C116.816 45.1466 117.274 45.901 118.077 45.901C118.881 45.901 119.342 45.1586 119.342 44.2632C119.342 43.4782 118.931 42.6599 118.084 42.6599C117.237 42.6599 116.816 43.4409 116.816 44.3031Z" fill="#333333"/>
<path d="M125.088 44.5279C125.056 43.9625 125.02 43.2759 125.022 42.773H125.006C124.867 43.2453 124.697 43.7576 124.493 44.3151L123.774 46.2882H123.377L122.713 44.351C122.519 43.7762 122.362 43.2546 122.247 42.773H122.232C122.218 43.2799 122.191 43.9572 122.152 44.5679L122.045 46.3148H121.545L121.829 42.2461H122.502L123.196 44.2153C123.364 44.7129 123.501 45.1613 123.606 45.5857H123.622C123.729 45.1732 123.871 44.7249 124.052 44.2153L124.78 42.2461H125.453L125.706 46.3148H125.189L125.09 44.5279H125.088Z" fill="#333333"/>
<path d="M127.551 42.3273C127.803 42.282 128.133 42.2461 128.555 42.2461C129.068 42.2461 129.447 42.3645 129.689 42.5814C129.909 42.7743 130.045 43.067 130.045 43.4263C130.045 43.7855 129.936 44.0809 129.731 44.2898C129.452 44.5852 129.006 44.7315 128.495 44.7315C128.337 44.7315 128.194 44.7249 128.073 44.6943V46.3135H127.551V42.3259V42.3273ZM128.073 44.2712C128.189 44.3044 128.334 44.3164 128.506 44.3164C129.139 44.3164 129.521 44.0064 129.521 43.4542C129.521 42.902 129.139 42.6586 128.567 42.6586C128.337 42.6586 128.166 42.6798 128.073 42.6998V44.2712Z" fill="#333333"/>
<path d="M131.95 45.0362L131.529 46.3148H130.982L132.368 42.2461H133.001L134.392 46.3148H133.83L133.393 45.0362H131.948H131.95ZM133.287 44.6251L132.884 43.4542C132.796 43.1881 132.735 42.9459 132.675 42.7118H132.66C132.601 42.9499 132.539 43.1974 132.457 43.4476L132.056 44.6251H133.287Z" fill="#333333"/>
<path d="M136.021 46.3142V42.2455H136.6L137.905 44.3011C138.204 44.7788 138.44 45.2059 138.633 45.6263L138.646 45.6197C138.598 45.0768 138.589 44.5805 138.589 43.9499V42.2441H139.085V46.3129H138.55L137.255 44.2506C136.974 43.7942 136.701 43.3312 136.497 42.8881L136.478 42.8948C136.51 43.4097 136.517 43.9006 136.517 44.5726V46.3129H136.021V46.3142Z" fill="#333333"/>
<path d="M142.015 46.3148V44.5905L140.723 42.2461H141.325L141.896 43.3704C142.051 43.6791 142.176 43.9252 142.302 44.2099H142.314C142.425 43.9425 142.565 43.6764 142.723 43.3677L143.31 42.2474H143.906L142.543 44.5838V46.3162H142.014L142.015 46.3148Z" fill="#333333"/>
</svg>
